<svg width="12" height="12" viewBox="0 0 12 12" fill="none" xmlns="http://www.w3.org/2000/svg">
<path d="M3.5 6L5.64286 7.78571L8.5 4.21429M6 11C5.34339 11 4.69321 10.8707 4.08658 10.6194C3.47996 10.3681 2.92876 9.99983 2.46447 9.53553C2.00017 9.07124 1.63188 8.52005 1.3806 7.91342C1.12933 7.30679 1 6.65661 1 6C1 5.34339 1.12933 4.69321 1.3806 4.08658C1.63188 3.47996 2.00017 2.92876 2.46447 2.46447C2.92876 2.00017 3.47996 1.63188 4.08658 1.3806C4.69321 1.12933 5.34339 1 6 1C7.32608 1 8.59785 1.52678 9.53553 2.46447C10.4732 3.40215 11 4.67392 11 6C11 7.32608 10.4732 8.59785 9.53553 9.53553C8.59785 10.4732 7.32608 11 6 11Z" stroke="#24DA37"/>
</svg>
